<svg xmlns="http://www.w3.org/2000/svg" viewBox="0 0 1538.52 360"><defs><style>.cls-1{fill:#ea0029;}.cls-2{fill:#3cb4e5;}.cls-3{fill:#231f20;}</style></defs><title>coc-CHICAGOhorizontal</title><g id="Layer_2" data-name="Layer 2"><g id="artwork"><g id="CHI"><polygon class="cls-1" points="500.41 0 467.41 123 344.42 90 434.42 180 344.42 270 467.41 237 500.41 360 533.41 237 656.41 270 566.41 180 656.41 90 533.41 123 500.41 0"/></g><rect class="cls-2" y="57.9" width="312" height="244.2"/></g><g id="acronyms_outlined" data-name="acronyms outlined"><path class="cls-3" d="M689.49,248.82c-.3-86.32-.3-128.11,0-137.87.92-40,17.69-55.82,58-55.82C787.4,55.13,803.87,71,805.1,111c.3,10.37,0,26.23-.31,36.91H765.44c.31-12.51.61-29.28.31-41.48-.31-11-6.71-16.48-18.3-16.48-11.9,0-18.31,5.49-18.61,16.48-1.22,45.44-1.22,101.26,0,147,.3,11,6.71,16.47,18.61,16.47,12.5,0,19.21-5.49,19.52-16.47.3-12.51.3-29.59,0-42.1h39.34c.31,11.59.31,25.93,0,37.52-1.21,40-18,55.82-58.86,55.82C706,304.64,689.49,288.78,689.49,248.82Z"/><path class="cls-3" d="M937.41,57.88v244H898.06V196.66H864.21V301.9H824.86v-244h39.35V159.45h33.85V57.88Z"/><path class="cls-3" d="M960.59,57.88h39.35v244H960.59Z"/><path class="cls-3" d="M1020.31,248.82c-.3-86.32-.3-128.11,0-137.87.92-40,17.7-55.82,58-55.82,40,0,56.43,15.86,57.65,55.82.3,10.37,0,26.23-.31,36.91h-39.34c.3-12.51.61-29.28.3-41.48-.3-11-6.71-16.48-18.3-16.48-11.9,0-18.3,5.49-18.61,16.48-1.22,45.44-1.22,101.26,0,147,.31,11,6.71,16.47,18.61,16.47,12.5,0,19.22-5.49,19.52-16.47.31-12.51.31-29.59,0-42.1h39.35c.3,11.59.3,25.93,0,37.52-1.22,40-18,55.82-58.87,55.82C1036.79,304.64,1020.31,288.78,1020.31,248.82Z"/><path class="cls-3" d="M1230.81,252.48H1193.9l-5.8,49.42h-40.56l34.46-244h60.4l34.77,244H1236.6Zm-4.88-38.43-6.1-51.55L1215,94.78h-5.49l-4.88,67.72-6.1,51.55Z"/><path class="cls-3" d="M1287.88,248.82c-.31-87.54-.31-126.89,0-137.87.6-40,17.38-55.82,58.25-55.82,38.74,0,54.91,15.86,57.35,55.82.61,11,.61,25.62,0,36.6h-39.35c.61-12.5.61-28.67,0-41.48-.61-10.68-7-16.17-18-16.17-12.5,0-18.91,5.49-18.91,16.17-.3,47-.3,100.35,0,147.33,0,11,6.41,16.47,18.91,16.47,11.9,0,18.31-5.49,18.61-16.47.31-9.46.31-22.88,0-32.34h-16.17V186.9h55.82c.92,17.69.61,40.87-.3,61.92-1.83,40-18.3,55.82-58,55.82C1304.35,304.64,1287.88,288.78,1287.88,248.82Z"/><path class="cls-3" d="M1421.62,248.82c-.91-44.53-.91-93.64,0-138.17.61-39.66,17.39-55.52,58.26-55.52,40.57,0,57.35,15.86,58,55.52.91,45.14.91,93.64,0,138.17-.61,40-17.39,55.82-58,55.82C1439,304.64,1422.23,288.78,1421.62,248.82Zm76.87,4.58V106.07c0-10.68-6.41-16.17-18.61-16.17s-18.6,5.49-18.91,16.17c-1.22,47.58-1.22,103.1,0,147.33.31,11,6.71,16.47,18.91,16.47S1498.49,264.38,1498.49,253.4Z"/></g></g></svg>